<mxfile host="app.diagrams.net" agent="Mozilla/5.0 (Windows NT 10.0; Win64; x64) AppleWebKit/537.36 (KHTML, like Gecko) Chrome/129.0.0.0 Safari/537.36 Edg/129.0.0.0" version="24.7.14" pages="2">
  <diagram name="Miftah Industri" id="QZnlUT_PSTz1BKCwSX9g">
    <mxGraphModel dx="2173" dy="603" grid="1" gridSize="10" guides="1" tooltips="1" connect="1" arrows="1" fold="1" page="1" pageScale="1" pageWidth="827" pageHeight="1169" math="0" shadow="0">
      <root>
        <mxCell id="0" />
        <mxCell id="1" parent="0" />
        <mxCell id="4fgPTElYRI44G22fOAVK-1" value="Toko Hani" style="rounded=1;whiteSpace=wrap;html=1;" vertex="1" parent="1">
          <mxGeometry x="350" y="340" width="120" height="60" as="geometry" />
        </mxCell>
        <mxCell id="4fgPTElYRI44G22fOAVK-2" value="" style="endArrow=classic;html=1;rounded=0;exitX=0.5;exitY=1;exitDx=0;exitDy=0;" edge="1" parent="1" source="4fgPTElYRI44G22fOAVK-1" target="4fgPTElYRI44G22fOAVK-3">
          <mxGeometry width="50" height="50" relative="1" as="geometry">
            <mxPoint x="385" y="470" as="sourcePoint" />
            <mxPoint x="215" y="450" as="targetPoint" />
          </mxGeometry>
        </mxCell>
        <mxCell id="4fgPTElYRI44G22fOAVK-3" value="Karpet" style="rounded=1;whiteSpace=wrap;html=1;" vertex="1" parent="1">
          <mxGeometry x="25" y="480" width="120" height="60" as="geometry" />
        </mxCell>
        <mxCell id="4fgPTElYRI44G22fOAVK-4" value="Busa" style="rounded=1;whiteSpace=wrap;html=1;" vertex="1" parent="1">
          <mxGeometry x="195" y="480" width="120" height="60" as="geometry" />
        </mxCell>
        <mxCell id="4fgPTElYRI44G22fOAVK-5" value="" style="endArrow=classic;html=1;rounded=0;exitX=0.5;exitY=1;exitDx=0;exitDy=0;entryX=0.5;entryY=0;entryDx=0;entryDy=0;" edge="1" parent="1" source="4fgPTElYRI44G22fOAVK-1" target="4fgPTElYRI44G22fOAVK-4">
          <mxGeometry width="50" height="50" relative="1" as="geometry">
            <mxPoint x="385" y="470" as="sourcePoint" />
            <mxPoint x="435" y="420" as="targetPoint" />
          </mxGeometry>
        </mxCell>
        <mxCell id="4fgPTElYRI44G22fOAVK-6" value="Interior" style="rounded=1;whiteSpace=wrap;html=1;" vertex="1" parent="1">
          <mxGeometry x="380" y="480" width="120" height="60" as="geometry" />
        </mxCell>
        <mxCell id="4fgPTElYRI44G22fOAVK-7" value="" style="endArrow=classic;html=1;rounded=0;exitX=0.5;exitY=1;exitDx=0;exitDy=0;entryX=0.5;entryY=0;entryDx=0;entryDy=0;" edge="1" parent="1" source="4fgPTElYRI44G22fOAVK-1" target="4fgPTElYRI44G22fOAVK-6">
          <mxGeometry width="50" height="50" relative="1" as="geometry">
            <mxPoint x="385" y="470" as="sourcePoint" />
            <mxPoint x="435" y="420" as="targetPoint" />
          </mxGeometry>
        </mxCell>
        <mxCell id="4fgPTElYRI44G22fOAVK-8" value="" style="endArrow=classic;html=1;rounded=0;exitX=0.5;exitY=1;exitDx=0;exitDy=0;entryX=0.5;entryY=0;entryDx=0;entryDy=0;" edge="1" parent="1" source="4fgPTElYRI44G22fOAVK-1" target="4fgPTElYRI44G22fOAVK-9">
          <mxGeometry width="50" height="50" relative="1" as="geometry">
            <mxPoint x="385" y="470" as="sourcePoint" />
            <mxPoint x="605" y="480" as="targetPoint" />
          </mxGeometry>
        </mxCell>
        <mxCell id="4fgPTElYRI44G22fOAVK-9" value="Terpal" style="rounded=1;whiteSpace=wrap;html=1;" vertex="1" parent="1">
          <mxGeometry x="555" y="480" width="120" height="60" as="geometry" />
        </mxCell>
        <mxCell id="4fgPTElYRI44G22fOAVK-10" value="Plastik" style="rounded=1;whiteSpace=wrap;html=1;" vertex="1" parent="1">
          <mxGeometry x="705" y="480" width="120" height="60" as="geometry" />
        </mxCell>
        <mxCell id="4fgPTElYRI44G22fOAVK-11" value="" style="endArrow=classic;html=1;rounded=0;exitX=0.5;exitY=1;exitDx=0;exitDy=0;entryX=0.5;entryY=0;entryDx=0;entryDy=0;" edge="1" parent="1" source="4fgPTElYRI44G22fOAVK-1" target="4fgPTElYRI44G22fOAVK-10">
          <mxGeometry width="50" height="50" relative="1" as="geometry">
            <mxPoint x="385" y="470" as="sourcePoint" />
            <mxPoint x="435" y="420" as="targetPoint" />
          </mxGeometry>
        </mxCell>
        <mxCell id="4fgPTElYRI44G22fOAVK-12" value="Miftah Industri" style="rounded=1;whiteSpace=wrap;html=1;" vertex="1" parent="1">
          <mxGeometry x="350" y="60" width="120" height="60" as="geometry" />
        </mxCell>
        <mxCell id="4fgPTElYRI44G22fOAVK-13" value="Pax8" style="rounded=1;whiteSpace=wrap;html=1;" vertex="1" parent="1">
          <mxGeometry x="950" y="340" width="120" height="60" as="geometry" />
        </mxCell>
        <mxCell id="4fgPTElYRI44G22fOAVK-14" value="Microsoft" style="rounded=1;whiteSpace=wrap;html=1;" vertex="1" parent="1">
          <mxGeometry x="-340" y="340" width="120" height="60" as="geometry" />
        </mxCell>
        <mxCell id="4fgPTElYRI44G22fOAVK-15" value="President Donuts" style="rounded=1;whiteSpace=wrap;html=1;" vertex="1" parent="1">
          <mxGeometry x="1250" y="340" width="120" height="60" as="geometry" />
        </mxCell>
        <mxCell id="4fgPTElYRI44G22fOAVK-16" value="Annata" style="rounded=1;whiteSpace=wrap;html=1;" vertex="1" parent="1">
          <mxGeometry x="-640" y="340" width="120" height="60" as="geometry" />
        </mxCell>
        <mxCell id="4fgPTElYRI44G22fOAVK-17" value="" style="endArrow=classic;html=1;rounded=0;exitX=0.5;exitY=1;exitDx=0;exitDy=0;entryX=0.5;entryY=0;entryDx=0;entryDy=0;" edge="1" parent="1" source="4fgPTElYRI44G22fOAVK-14" target="4fgPTElYRI44G22fOAVK-18">
          <mxGeometry width="50" height="50" relative="1" as="geometry">
            <mxPoint x="-40" y="440" as="sourcePoint" />
            <mxPoint x="-270" y="460" as="targetPoint" />
          </mxGeometry>
        </mxCell>
        <mxCell id="4fgPTElYRI44G22fOAVK-18" value="Developer" style="rounded=1;whiteSpace=wrap;html=1;" vertex="1" parent="1">
          <mxGeometry x="-570" y="480" width="120" height="60" as="geometry" />
        </mxCell>
        <mxCell id="4fgPTElYRI44G22fOAVK-19" value="Reseller" style="rounded=1;whiteSpace=wrap;html=1;" vertex="1" parent="1">
          <mxGeometry x="-380" y="480" width="120" height="60" as="geometry" />
        </mxCell>
        <mxCell id="4fgPTElYRI44G22fOAVK-20" value="Partner" style="rounded=1;whiteSpace=wrap;html=1;" vertex="1" parent="1">
          <mxGeometry x="-180" y="480" width="120" height="60" as="geometry" />
        </mxCell>
        <mxCell id="4fgPTElYRI44G22fOAVK-21" value="" style="endArrow=classic;html=1;rounded=0;exitX=0.5;exitY=1;exitDx=0;exitDy=0;" edge="1" parent="1" source="4fgPTElYRI44G22fOAVK-14" target="4fgPTElYRI44G22fOAVK-19">
          <mxGeometry width="50" height="50" relative="1" as="geometry">
            <mxPoint x="-40" y="440" as="sourcePoint" />
            <mxPoint x="10" y="390" as="targetPoint" />
          </mxGeometry>
        </mxCell>
        <mxCell id="4fgPTElYRI44G22fOAVK-22" value="" style="endArrow=classic;html=1;rounded=0;exitX=0.5;exitY=1;exitDx=0;exitDy=0;entryX=0.5;entryY=0;entryDx=0;entryDy=0;" edge="1" parent="1" source="4fgPTElYRI44G22fOAVK-14" target="4fgPTElYRI44G22fOAVK-20">
          <mxGeometry width="50" height="50" relative="1" as="geometry">
            <mxPoint x="-40" y="440" as="sourcePoint" />
            <mxPoint x="10" y="390" as="targetPoint" />
          </mxGeometry>
        </mxCell>
        <mxCell id="4fgPTElYRI44G22fOAVK-23" value="" style="endArrow=classic;html=1;rounded=0;exitX=0.5;exitY=1;exitDx=0;exitDy=0;" edge="1" parent="1" source="4fgPTElYRI44G22fOAVK-16" target="4fgPTElYRI44G22fOAVK-24">
          <mxGeometry width="50" height="50" relative="1" as="geometry">
            <mxPoint x="-420" y="440" as="sourcePoint" />
            <mxPoint x="-700" y="470" as="targetPoint" />
          </mxGeometry>
        </mxCell>
        <mxCell id="4fgPTElYRI44G22fOAVK-24" value="Sales Industri Alat Berat" style="rounded=1;whiteSpace=wrap;html=1;" vertex="1" parent="1">
          <mxGeometry x="-820" y="480" width="120" height="60" as="geometry" />
        </mxCell>
        <mxCell id="4fgPTElYRI44G22fOAVK-25" value="" style="endArrow=classic;html=1;rounded=0;exitX=0.5;exitY=1;exitDx=0;exitDy=0;entryX=0.5;entryY=0;entryDx=0;entryDy=0;" edge="1" parent="1" source="4fgPTElYRI44G22fOAVK-13" target="4fgPTElYRI44G22fOAVK-26">
          <mxGeometry width="50" height="50" relative="1" as="geometry">
            <mxPoint x="1250" y="440" as="sourcePoint" />
            <mxPoint x="1010" y="480" as="targetPoint" />
          </mxGeometry>
        </mxCell>
        <mxCell id="4fgPTElYRI44G22fOAVK-26" value="Security" style="rounded=1;whiteSpace=wrap;html=1;" vertex="1" parent="1">
          <mxGeometry x="950" y="470" width="120" height="60" as="geometry" />
        </mxCell>
        <mxCell id="4fgPTElYRI44G22fOAVK-27" value="" style="endArrow=classic;html=1;rounded=0;exitX=0.5;exitY=1;exitDx=0;exitDy=0;entryX=0.5;entryY=0;entryDx=0;entryDy=0;" edge="1" parent="1" source="4fgPTElYRI44G22fOAVK-15" target="4fgPTElYRI44G22fOAVK-28">
          <mxGeometry width="50" height="50" relative="1" as="geometry">
            <mxPoint x="1250" y="440" as="sourcePoint" />
            <mxPoint x="1310" y="480" as="targetPoint" />
          </mxGeometry>
        </mxCell>
        <mxCell id="4fgPTElYRI44G22fOAVK-28" value="Foods" style="rounded=1;whiteSpace=wrap;html=1;" vertex="1" parent="1">
          <mxGeometry x="1250" y="470" width="120" height="60" as="geometry" />
        </mxCell>
        <mxCell id="4fgPTElYRI44G22fOAVK-29" value="" style="endArrow=classic;html=1;rounded=0;exitX=0.5;exitY=1;exitDx=0;exitDy=0;entryX=0.5;entryY=0;entryDx=0;entryDy=0;" edge="1" parent="1" source="4fgPTElYRI44G22fOAVK-18" target="4fgPTElYRI44G22fOAVK-32">
          <mxGeometry width="50" height="50" relative="1" as="geometry">
            <mxPoint x="-220" y="440" as="sourcePoint" />
            <mxPoint x="-400" y="600" as="targetPoint" />
          </mxGeometry>
        </mxCell>
        <mxCell id="4fgPTElYRI44G22fOAVK-30" value="" style="endArrow=classic;html=1;rounded=0;exitX=0.5;exitY=1;exitDx=0;exitDy=0;" edge="1" parent="1" source="4fgPTElYRI44G22fOAVK-19" target="4fgPTElYRI44G22fOAVK-33">
          <mxGeometry width="50" height="50" relative="1" as="geometry">
            <mxPoint x="-220" y="440" as="sourcePoint" />
            <mxPoint x="-240" y="600" as="targetPoint" />
          </mxGeometry>
        </mxCell>
        <mxCell id="4fgPTElYRI44G22fOAVK-31" value="" style="endArrow=classic;html=1;rounded=0;exitX=0.5;exitY=1;exitDx=0;exitDy=0;" edge="1" parent="1" source="4fgPTElYRI44G22fOAVK-20" target="4fgPTElYRI44G22fOAVK-34">
          <mxGeometry width="50" height="50" relative="1" as="geometry">
            <mxPoint x="-220" y="440" as="sourcePoint" />
            <mxPoint x="-80" y="600" as="targetPoint" />
          </mxGeometry>
        </mxCell>
        <mxCell id="4fgPTElYRI44G22fOAVK-32" value="ISV" style="rounded=1;whiteSpace=wrap;html=1;" vertex="1" parent="1">
          <mxGeometry x="-670" y="620" width="120" height="60" as="geometry" />
        </mxCell>
        <mxCell id="4fgPTElYRI44G22fOAVK-33" value="Menjual Produk" style="rounded=1;whiteSpace=wrap;html=1;" vertex="1" parent="1">
          <mxGeometry x="-450" y="620" width="120" height="60" as="geometry" />
        </mxCell>
        <mxCell id="4fgPTElYRI44G22fOAVK-34" value="Education and Training Services" style="rounded=1;whiteSpace=wrap;html=1;" vertex="1" parent="1">
          <mxGeometry x="-300" y="620" width="120" height="60" as="geometry" />
        </mxCell>
        <mxCell id="4fgPTElYRI44G22fOAVK-35" value="" style="endArrow=classic;html=1;rounded=0;exitX=0.5;exitY=1;exitDx=0;exitDy=0;" edge="1" parent="1" source="4fgPTElYRI44G22fOAVK-20" target="4fgPTElYRI44G22fOAVK-36">
          <mxGeometry width="50" height="50" relative="1" as="geometry">
            <mxPoint x="-260" y="590" as="sourcePoint" />
            <mxPoint x="-20" y="590" as="targetPoint" />
          </mxGeometry>
        </mxCell>
        <mxCell id="4fgPTElYRI44G22fOAVK-36" value="Fabric Partner" style="rounded=1;whiteSpace=wrap;html=1;" vertex="1" parent="1">
          <mxGeometry x="-30" y="620" width="120" height="60" as="geometry" />
        </mxCell>
        <mxCell id="4fgPTElYRI44G22fOAVK-37" value="" style="endArrow=classic;html=1;rounded=0;exitX=0.5;exitY=1;exitDx=0;exitDy=0;" edge="1" parent="1" source="4fgPTElYRI44G22fOAVK-36" target="4fgPTElYRI44G22fOAVK-39">
          <mxGeometry width="50" height="50" relative="1" as="geometry">
            <mxPoint x="-260" y="590" as="sourcePoint" />
            <mxPoint x="30" y="750" as="targetPoint" />
          </mxGeometry>
        </mxCell>
        <mxCell id="4fgPTElYRI44G22fOAVK-38" value="Technology" style="edgeLabel;html=1;align=center;verticalAlign=middle;resizable=0;points=[];" vertex="1" connectable="0" parent="4fgPTElYRI44G22fOAVK-37">
          <mxGeometry x="-0.3588" y="1" relative="1" as="geometry">
            <mxPoint as="offset" />
          </mxGeometry>
        </mxCell>
        <mxCell id="4fgPTElYRI44G22fOAVK-39" value="Microsoft Power BI" style="rounded=1;whiteSpace=wrap;html=1;" vertex="1" parent="1">
          <mxGeometry x="-30" y="740" width="120" height="60" as="geometry" />
        </mxCell>
        <mxCell id="4fgPTElYRI44G22fOAVK-40" value="" style="endArrow=classic;html=1;rounded=0;exitX=0.5;exitY=1;exitDx=0;exitDy=0;" edge="1" parent="1" source="4fgPTElYRI44G22fOAVK-39" target="4fgPTElYRI44G22fOAVK-41">
          <mxGeometry width="50" height="50" relative="1" as="geometry">
            <mxPoint x="-30" y="790" as="sourcePoint" />
            <mxPoint x="30" y="860" as="targetPoint" />
          </mxGeometry>
        </mxCell>
        <mxCell id="4fgPTElYRI44G22fOAVK-41" value="DAX, SQL, Phyton" style="rounded=1;whiteSpace=wrap;html=1;" vertex="1" parent="1">
          <mxGeometry x="-30" y="860" width="120" height="60" as="geometry" />
        </mxCell>
        <mxCell id="4fgPTElYRI44G22fOAVK-42" value="" style="endArrow=classic;html=1;rounded=0;exitX=0.5;exitY=1;exitDx=0;exitDy=0;" edge="1" parent="1" source="4fgPTElYRI44G22fOAVK-34" target="4fgPTElYRI44G22fOAVK-43">
          <mxGeometry width="50" height="50" relative="1" as="geometry">
            <mxPoint x="300" y="810" as="sourcePoint" />
            <mxPoint x="-240" y="740" as="targetPoint" />
          </mxGeometry>
        </mxCell>
        <mxCell id="4fgPTElYRI44G22fOAVK-43" value="Pelatihan" style="rounded=1;whiteSpace=wrap;html=1;" vertex="1" parent="1">
          <mxGeometry x="-300" y="739.9999999999998" width="120" height="60" as="geometry" />
        </mxCell>
        <mxCell id="4fgPTElYRI44G22fOAVK-44" value="" style="endArrow=classic;html=1;rounded=0;exitX=1;exitY=0.5;exitDx=0;exitDy=0;" edge="1" parent="1" source="4fgPTElYRI44G22fOAVK-36" target="4fgPTElYRI44G22fOAVK-45">
          <mxGeometry width="50" height="50" relative="1" as="geometry">
            <mxPoint x="300" y="810" as="sourcePoint" />
            <mxPoint x="200" y="650" as="targetPoint" />
          </mxGeometry>
        </mxCell>
        <mxCell id="4fgPTElYRI44G22fOAVK-45" value="Kesehatan" style="rounded=1;whiteSpace=wrap;html=1;" vertex="1" parent="1">
          <mxGeometry x="340" y="619.9999999999998" width="120" height="60" as="geometry" />
        </mxCell>
        <mxCell id="4fgPTElYRI44G22fOAVK-46" value="Manufacturing" style="rounded=1;whiteSpace=wrap;html=1;" vertex="1" parent="1">
          <mxGeometry x="280" y="740" width="120" height="60" as="geometry" />
        </mxCell>
        <mxCell id="4fgPTElYRI44G22fOAVK-47" value="" style="endArrow=classic;html=1;rounded=0;exitX=1;exitY=0.5;exitDx=0;exitDy=0;entryX=0.5;entryY=0;entryDx=0;entryDy=0;" edge="1" parent="1" source="4fgPTElYRI44G22fOAVK-36" target="4fgPTElYRI44G22fOAVK-46">
          <mxGeometry width="50" height="50" relative="1" as="geometry">
            <mxPoint x="300" y="810" as="sourcePoint" />
            <mxPoint x="350" y="760" as="targetPoint" />
          </mxGeometry>
        </mxCell>
        <mxCell id="4fgPTElYRI44G22fOAVK-48" value="Retail" style="rounded=1;whiteSpace=wrap;html=1;" vertex="1" parent="1">
          <mxGeometry x="220" y="860" width="120" height="60" as="geometry" />
        </mxCell>
        <mxCell id="4fgPTElYRI44G22fOAVK-49" value="" style="endArrow=classic;html=1;rounded=0;exitX=1;exitY=0.5;exitDx=0;exitDy=0;entryX=0.5;entryY=0;entryDx=0;entryDy=0;" edge="1" parent="1" source="4fgPTElYRI44G22fOAVK-36" target="4fgPTElYRI44G22fOAVK-48">
          <mxGeometry width="50" height="50" relative="1" as="geometry">
            <mxPoint x="300" y="810" as="sourcePoint" />
            <mxPoint x="350" y="760" as="targetPoint" />
          </mxGeometry>
        </mxCell>
        <mxCell id="4fgPTElYRI44G22fOAVK-50" value="" style="endArrow=classic;html=1;rounded=0;exitX=0.5;exitY=1;exitDx=0;exitDy=0;" edge="1" parent="1" source="4fgPTElYRI44G22fOAVK-26" target="4fgPTElYRI44G22fOAVK-51">
          <mxGeometry width="50" height="50" relative="1" as="geometry">
            <mxPoint x="690" y="570" as="sourcePoint" />
            <mxPoint x="850" y="690" as="targetPoint" />
          </mxGeometry>
        </mxCell>
        <mxCell id="4fgPTElYRI44G22fOAVK-51" value="Merk" style="rounded=1;whiteSpace=wrap;html=1;" vertex="1" parent="1">
          <mxGeometry x="790" y="659.9999999999998" width="120" height="60" as="geometry" />
        </mxCell>
        <mxCell id="4fgPTElYRI44G22fOAVK-52" value="Fungsinya apa" style="rounded=1;whiteSpace=wrap;html=1;" vertex="1" parent="1">
          <mxGeometry x="1120" y="660" width="120" height="60" as="geometry" />
        </mxCell>
        <mxCell id="4fgPTElYRI44G22fOAVK-53" value="" style="endArrow=classic;html=1;rounded=0;exitX=0.5;exitY=1;exitDx=0;exitDy=0;entryX=0.5;entryY=0;entryDx=0;entryDy=0;" edge="1" parent="1" source="4fgPTElYRI44G22fOAVK-26" target="4fgPTElYRI44G22fOAVK-52">
          <mxGeometry width="50" height="50" relative="1" as="geometry">
            <mxPoint x="690" y="570" as="sourcePoint" />
            <mxPoint x="740" y="520" as="targetPoint" />
          </mxGeometry>
        </mxCell>
        <mxCell id="4fgPTElYRI44G22fOAVK-54" value="" style="endArrow=classic;html=1;rounded=0;exitX=1;exitY=0.5;exitDx=0;exitDy=0;" edge="1" parent="1" source="4fgPTElYRI44G22fOAVK-45">
          <mxGeometry width="50" height="50" relative="1" as="geometry">
            <mxPoint x="360" y="690" as="sourcePoint" />
            <mxPoint x="510" y="730" as="targetPoint" />
          </mxGeometry>
        </mxCell>
        <mxCell id="4fgPTElYRI44G22fOAVK-55" value="" style="endArrow=classic;html=1;rounded=0;exitX=0.5;exitY=1;exitDx=0;exitDy=0;" edge="1" parent="1" source="4fgPTElYRI44G22fOAVK-46">
          <mxGeometry width="50" height="50" relative="1" as="geometry">
            <mxPoint x="360" y="690" as="sourcePoint" />
            <mxPoint x="430" y="870" as="targetPoint" />
          </mxGeometry>
        </mxCell>
      </root>
    </mxGraphModel>
  </diagram>
  <diagram name="Microsoft Partner" id="-m5HZ3zXCLEJJMhHeJb3">
    <mxGraphModel dx="2173" dy="603" grid="1" gridSize="10" guides="1" tooltips="1" connect="1" arrows="1" fold="1" page="1" pageScale="1" pageWidth="827" pageHeight="1169" math="0" shadow="0">
      <root>
        <mxCell id="7nyL2iqiai8q92V9KYH4-0" />
        <mxCell id="7nyL2iqiai8q92V9KYH4-1" parent="7nyL2iqiai8q92V9KYH4-0" />
        <mxCell id="7nyL2iqiai8q92V9KYH4-14" value="Pax8" style="rounded=1;whiteSpace=wrap;html=1;" vertex="1" parent="7nyL2iqiai8q92V9KYH4-1">
          <mxGeometry x="950" y="340" width="120" height="60" as="geometry" />
        </mxCell>
        <mxCell id="7nyL2iqiai8q92V9KYH4-15" value="Microsoft" style="rounded=1;whiteSpace=wrap;html=1;" vertex="1" parent="7nyL2iqiai8q92V9KYH4-1">
          <mxGeometry x="-240" y="280" width="120" height="60" as="geometry" />
        </mxCell>
        <mxCell id="7nyL2iqiai8q92V9KYH4-16" value="President Donuts" style="rounded=1;whiteSpace=wrap;html=1;" vertex="1" parent="7nyL2iqiai8q92V9KYH4-1">
          <mxGeometry x="1250" y="340" width="120" height="60" as="geometry" />
        </mxCell>
        <mxCell id="7nyL2iqiai8q92V9KYH4-17" value="Annata" style="rounded=1;whiteSpace=wrap;html=1;" vertex="1" parent="7nyL2iqiai8q92V9KYH4-1">
          <mxGeometry x="-820" y="300" width="120" height="60" as="geometry" />
        </mxCell>
        <mxCell id="7nyL2iqiai8q92V9KYH4-18" value="" style="endArrow=classic;html=1;rounded=0;exitX=0.5;exitY=1;exitDx=0;exitDy=0;entryX=0.5;entryY=0;entryDx=0;entryDy=0;" edge="1" parent="7nyL2iqiai8q92V9KYH4-1" source="7nyL2iqiai8q92V9KYH4-15" target="7nyL2iqiai8q92V9KYH4-19">
          <mxGeometry width="50" height="50" relative="1" as="geometry">
            <mxPoint x="60" y="380" as="sourcePoint" />
            <mxPoint x="-170" y="400" as="targetPoint" />
          </mxGeometry>
        </mxCell>
        <mxCell id="7nyL2iqiai8q92V9KYH4-19" value="Developer" style="rounded=1;whiteSpace=wrap;html=1;" vertex="1" parent="7nyL2iqiai8q92V9KYH4-1">
          <mxGeometry x="-470" y="420" width="120" height="60" as="geometry" />
        </mxCell>
        <mxCell id="7nyL2iqiai8q92V9KYH4-20" value="Reseller" style="rounded=1;whiteSpace=wrap;html=1;" vertex="1" parent="7nyL2iqiai8q92V9KYH4-1">
          <mxGeometry x="-280" y="420" width="120" height="60" as="geometry" />
        </mxCell>
        <mxCell id="7nyL2iqiai8q92V9KYH4-21" value="Partner" style="rounded=1;whiteSpace=wrap;html=1;" vertex="1" parent="7nyL2iqiai8q92V9KYH4-1">
          <mxGeometry x="-80" y="420" width="120" height="60" as="geometry" />
        </mxCell>
        <mxCell id="7nyL2iqiai8q92V9KYH4-22" value="" style="endArrow=classic;html=1;rounded=0;exitX=0.5;exitY=1;exitDx=0;exitDy=0;" edge="1" parent="7nyL2iqiai8q92V9KYH4-1" source="7nyL2iqiai8q92V9KYH4-15" target="7nyL2iqiai8q92V9KYH4-20">
          <mxGeometry width="50" height="50" relative="1" as="geometry">
            <mxPoint x="60" y="380" as="sourcePoint" />
            <mxPoint x="110" y="330" as="targetPoint" />
          </mxGeometry>
        </mxCell>
        <mxCell id="7nyL2iqiai8q92V9KYH4-23" value="" style="endArrow=classic;html=1;rounded=0;exitX=0.5;exitY=1;exitDx=0;exitDy=0;entryX=0.5;entryY=0;entryDx=0;entryDy=0;" edge="1" parent="7nyL2iqiai8q92V9KYH4-1" source="7nyL2iqiai8q92V9KYH4-15" target="7nyL2iqiai8q92V9KYH4-21">
          <mxGeometry width="50" height="50" relative="1" as="geometry">
            <mxPoint x="60" y="380" as="sourcePoint" />
            <mxPoint x="110" y="330" as="targetPoint" />
          </mxGeometry>
        </mxCell>
        <mxCell id="7nyL2iqiai8q92V9KYH4-24" value="" style="endArrow=classic;html=1;rounded=0;exitX=0.5;exitY=1;exitDx=0;exitDy=0;" edge="1" parent="7nyL2iqiai8q92V9KYH4-1" source="7nyL2iqiai8q92V9KYH4-17" target="7nyL2iqiai8q92V9KYH4-25">
          <mxGeometry width="50" height="50" relative="1" as="geometry">
            <mxPoint x="-420" y="440" as="sourcePoint" />
            <mxPoint x="-700" y="470" as="targetPoint" />
          </mxGeometry>
        </mxCell>
        <mxCell id="7nyL2iqiai8q92V9KYH4-25" value="Sales Industri Alat Berat" style="rounded=1;whiteSpace=wrap;html=1;" vertex="1" parent="7nyL2iqiai8q92V9KYH4-1">
          <mxGeometry x="-820" y="480" width="120" height="60" as="geometry" />
        </mxCell>
        <mxCell id="7nyL2iqiai8q92V9KYH4-26" value="" style="endArrow=classic;html=1;rounded=0;exitX=0.5;exitY=1;exitDx=0;exitDy=0;entryX=0.5;entryY=0;entryDx=0;entryDy=0;" edge="1" parent="7nyL2iqiai8q92V9KYH4-1" source="7nyL2iqiai8q92V9KYH4-14" target="7nyL2iqiai8q92V9KYH4-27">
          <mxGeometry width="50" height="50" relative="1" as="geometry">
            <mxPoint x="1250" y="440" as="sourcePoint" />
            <mxPoint x="1010" y="480" as="targetPoint" />
          </mxGeometry>
        </mxCell>
        <mxCell id="7nyL2iqiai8q92V9KYH4-27" value="Security" style="rounded=1;whiteSpace=wrap;html=1;" vertex="1" parent="7nyL2iqiai8q92V9KYH4-1">
          <mxGeometry x="950" y="470" width="120" height="60" as="geometry" />
        </mxCell>
        <mxCell id="7nyL2iqiai8q92V9KYH4-28" value="" style="endArrow=classic;html=1;rounded=0;exitX=0.5;exitY=1;exitDx=0;exitDy=0;entryX=0.5;entryY=0;entryDx=0;entryDy=0;" edge="1" parent="7nyL2iqiai8q92V9KYH4-1" source="7nyL2iqiai8q92V9KYH4-16" target="7nyL2iqiai8q92V9KYH4-29">
          <mxGeometry width="50" height="50" relative="1" as="geometry">
            <mxPoint x="1250" y="440" as="sourcePoint" />
            <mxPoint x="1310" y="480" as="targetPoint" />
          </mxGeometry>
        </mxCell>
        <mxCell id="7nyL2iqiai8q92V9KYH4-29" value="Foods" style="rounded=1;whiteSpace=wrap;html=1;" vertex="1" parent="7nyL2iqiai8q92V9KYH4-1">
          <mxGeometry x="1250" y="470" width="120" height="60" as="geometry" />
        </mxCell>
        <mxCell id="7nyL2iqiai8q92V9KYH4-30" value="" style="endArrow=classic;html=1;rounded=0;exitX=0.5;exitY=1;exitDx=0;exitDy=0;entryX=0.5;entryY=0;entryDx=0;entryDy=0;" edge="1" parent="7nyL2iqiai8q92V9KYH4-1" source="7nyL2iqiai8q92V9KYH4-19" target="7nyL2iqiai8q92V9KYH4-33">
          <mxGeometry width="50" height="50" relative="1" as="geometry">
            <mxPoint x="-120" y="380" as="sourcePoint" />
            <mxPoint x="-300" y="540" as="targetPoint" />
          </mxGeometry>
        </mxCell>
        <mxCell id="7nyL2iqiai8q92V9KYH4-31" value="" style="endArrow=classic;html=1;rounded=0;exitX=0.5;exitY=1;exitDx=0;exitDy=0;" edge="1" parent="7nyL2iqiai8q92V9KYH4-1" source="7nyL2iqiai8q92V9KYH4-20" target="7nyL2iqiai8q92V9KYH4-34">
          <mxGeometry width="50" height="50" relative="1" as="geometry">
            <mxPoint x="-120" y="380" as="sourcePoint" />
            <mxPoint x="-140" y="540" as="targetPoint" />
          </mxGeometry>
        </mxCell>
        <mxCell id="7nyL2iqiai8q92V9KYH4-32" value="" style="endArrow=classic;html=1;rounded=0;exitX=0.5;exitY=1;exitDx=0;exitDy=0;" edge="1" parent="7nyL2iqiai8q92V9KYH4-1" source="7nyL2iqiai8q92V9KYH4-21" target="7nyL2iqiai8q92V9KYH4-35">
          <mxGeometry width="50" height="50" relative="1" as="geometry">
            <mxPoint x="-120" y="380" as="sourcePoint" />
            <mxPoint x="20" y="540" as="targetPoint" />
          </mxGeometry>
        </mxCell>
        <mxCell id="7nyL2iqiai8q92V9KYH4-33" value="ISV" style="rounded=1;whiteSpace=wrap;html=1;" vertex="1" parent="7nyL2iqiai8q92V9KYH4-1">
          <mxGeometry x="-570" y="560" width="120" height="60" as="geometry" />
        </mxCell>
        <mxCell id="7nyL2iqiai8q92V9KYH4-34" value="Menjual Produk" style="rounded=1;whiteSpace=wrap;html=1;" vertex="1" parent="7nyL2iqiai8q92V9KYH4-1">
          <mxGeometry x="-350" y="560" width="120" height="60" as="geometry" />
        </mxCell>
        <mxCell id="7nyL2iqiai8q92V9KYH4-35" value="Education and Training Services" style="rounded=1;whiteSpace=wrap;html=1;" vertex="1" parent="7nyL2iqiai8q92V9KYH4-1">
          <mxGeometry x="-200" y="560" width="120" height="60" as="geometry" />
        </mxCell>
        <mxCell id="7nyL2iqiai8q92V9KYH4-36" value="" style="endArrow=classic;html=1;rounded=0;exitX=0.5;exitY=1;exitDx=0;exitDy=0;" edge="1" parent="7nyL2iqiai8q92V9KYH4-1" source="7nyL2iqiai8q92V9KYH4-21" target="7nyL2iqiai8q92V9KYH4-37">
          <mxGeometry width="50" height="50" relative="1" as="geometry">
            <mxPoint x="-160" y="530" as="sourcePoint" />
            <mxPoint x="80" y="530" as="targetPoint" />
          </mxGeometry>
        </mxCell>
        <mxCell id="7nyL2iqiai8q92V9KYH4-37" value="Fabric Partner" style="rounded=1;whiteSpace=wrap;html=1;" vertex="1" parent="7nyL2iqiai8q92V9KYH4-1">
          <mxGeometry x="70" y="560" width="120" height="60" as="geometry" />
        </mxCell>
        <mxCell id="7nyL2iqiai8q92V9KYH4-38" value="" style="endArrow=classic;html=1;rounded=0;exitX=0.5;exitY=1;exitDx=0;exitDy=0;" edge="1" parent="7nyL2iqiai8q92V9KYH4-1" source="7nyL2iqiai8q92V9KYH4-37" target="7nyL2iqiai8q92V9KYH4-40">
          <mxGeometry width="50" height="50" relative="1" as="geometry">
            <mxPoint x="-160" y="530" as="sourcePoint" />
            <mxPoint x="130" y="690" as="targetPoint" />
          </mxGeometry>
        </mxCell>
        <mxCell id="7nyL2iqiai8q92V9KYH4-39" value="Technology" style="edgeLabel;html=1;align=center;verticalAlign=middle;resizable=0;points=[];" vertex="1" connectable="0" parent="7nyL2iqiai8q92V9KYH4-38">
          <mxGeometry x="-0.3588" y="1" relative="1" as="geometry">
            <mxPoint as="offset" />
          </mxGeometry>
        </mxCell>
        <mxCell id="7nyL2iqiai8q92V9KYH4-40" value="Microsoft Power BI" style="rounded=1;whiteSpace=wrap;html=1;" vertex="1" parent="7nyL2iqiai8q92V9KYH4-1">
          <mxGeometry x="70" y="680" width="120" height="60" as="geometry" />
        </mxCell>
        <mxCell id="7nyL2iqiai8q92V9KYH4-41" value="" style="endArrow=classic;html=1;rounded=0;exitX=0.5;exitY=1;exitDx=0;exitDy=0;" edge="1" parent="7nyL2iqiai8q92V9KYH4-1" source="7nyL2iqiai8q92V9KYH4-40" target="7nyL2iqiai8q92V9KYH4-42">
          <mxGeometry width="50" height="50" relative="1" as="geometry">
            <mxPoint x="70" y="730" as="sourcePoint" />
            <mxPoint x="130" y="800" as="targetPoint" />
          </mxGeometry>
        </mxCell>
        <mxCell id="7nyL2iqiai8q92V9KYH4-42" value="DAX, SQL, Phyton" style="rounded=1;whiteSpace=wrap;html=1;" vertex="1" parent="7nyL2iqiai8q92V9KYH4-1">
          <mxGeometry x="70" y="800" width="120" height="60" as="geometry" />
        </mxCell>
        <mxCell id="7nyL2iqiai8q92V9KYH4-43" value="" style="endArrow=classic;html=1;rounded=0;exitX=0.5;exitY=1;exitDx=0;exitDy=0;" edge="1" parent="7nyL2iqiai8q92V9KYH4-1" source="7nyL2iqiai8q92V9KYH4-35" target="7nyL2iqiai8q92V9KYH4-44">
          <mxGeometry width="50" height="50" relative="1" as="geometry">
            <mxPoint x="400" y="750" as="sourcePoint" />
            <mxPoint x="-140" y="680" as="targetPoint" />
          </mxGeometry>
        </mxCell>
        <mxCell id="7nyL2iqiai8q92V9KYH4-44" value="Pelatihan" style="rounded=1;whiteSpace=wrap;html=1;" vertex="1" parent="7nyL2iqiai8q92V9KYH4-1">
          <mxGeometry x="-200" y="679.9999999999998" width="120" height="60" as="geometry" />
        </mxCell>
        <mxCell id="7nyL2iqiai8q92V9KYH4-45" value="" style="endArrow=classic;html=1;rounded=0;exitX=1;exitY=0.5;exitDx=0;exitDy=0;" edge="1" parent="7nyL2iqiai8q92V9KYH4-1" source="7nyL2iqiai8q92V9KYH4-37" target="7nyL2iqiai8q92V9KYH4-46">
          <mxGeometry width="50" height="50" relative="1" as="geometry">
            <mxPoint x="400" y="750" as="sourcePoint" />
            <mxPoint x="300" y="590" as="targetPoint" />
          </mxGeometry>
        </mxCell>
        <mxCell id="7nyL2iqiai8q92V9KYH4-46" value="Kesehatan" style="rounded=1;whiteSpace=wrap;html=1;" vertex="1" parent="7nyL2iqiai8q92V9KYH4-1">
          <mxGeometry x="440" y="559.9999999999998" width="120" height="60" as="geometry" />
        </mxCell>
        <mxCell id="7nyL2iqiai8q92V9KYH4-47" value="Manufacturing" style="rounded=1;whiteSpace=wrap;html=1;" vertex="1" parent="7nyL2iqiai8q92V9KYH4-1">
          <mxGeometry x="380" y="680" width="120" height="60" as="geometry" />
        </mxCell>
        <mxCell id="7nyL2iqiai8q92V9KYH4-48" value="" style="endArrow=classic;html=1;rounded=0;exitX=1;exitY=0.5;exitDx=0;exitDy=0;entryX=0.5;entryY=0;entryDx=0;entryDy=0;" edge="1" parent="7nyL2iqiai8q92V9KYH4-1" source="7nyL2iqiai8q92V9KYH4-37" target="7nyL2iqiai8q92V9KYH4-47">
          <mxGeometry width="50" height="50" relative="1" as="geometry">
            <mxPoint x="400" y="750" as="sourcePoint" />
            <mxPoint x="450" y="700" as="targetPoint" />
          </mxGeometry>
        </mxCell>
        <mxCell id="7nyL2iqiai8q92V9KYH4-49" value="Retail" style="rounded=1;whiteSpace=wrap;html=1;" vertex="1" parent="7nyL2iqiai8q92V9KYH4-1">
          <mxGeometry x="320" y="800" width="120" height="60" as="geometry" />
        </mxCell>
        <mxCell id="7nyL2iqiai8q92V9KYH4-50" value="" style="endArrow=classic;html=1;rounded=0;exitX=1;exitY=0.5;exitDx=0;exitDy=0;entryX=0.5;entryY=0;entryDx=0;entryDy=0;" edge="1" parent="7nyL2iqiai8q92V9KYH4-1" source="7nyL2iqiai8q92V9KYH4-37" target="7nyL2iqiai8q92V9KYH4-49">
          <mxGeometry width="50" height="50" relative="1" as="geometry">
            <mxPoint x="400" y="750" as="sourcePoint" />
            <mxPoint x="450" y="700" as="targetPoint" />
          </mxGeometry>
        </mxCell>
        <mxCell id="7nyL2iqiai8q92V9KYH4-51" value="" style="endArrow=classic;html=1;rounded=0;exitX=0.5;exitY=1;exitDx=0;exitDy=0;" edge="1" parent="7nyL2iqiai8q92V9KYH4-1" source="7nyL2iqiai8q92V9KYH4-27" target="7nyL2iqiai8q92V9KYH4-52">
          <mxGeometry width="50" height="50" relative="1" as="geometry">
            <mxPoint x="690" y="570" as="sourcePoint" />
            <mxPoint x="850" y="690" as="targetPoint" />
          </mxGeometry>
        </mxCell>
        <mxCell id="7nyL2iqiai8q92V9KYH4-52" value="Merk" style="rounded=1;whiteSpace=wrap;html=1;" vertex="1" parent="7nyL2iqiai8q92V9KYH4-1">
          <mxGeometry x="790" y="659.9999999999998" width="120" height="60" as="geometry" />
        </mxCell>
        <mxCell id="7nyL2iqiai8q92V9KYH4-53" value="Fungsinya apa" style="rounded=1;whiteSpace=wrap;html=1;" vertex="1" parent="7nyL2iqiai8q92V9KYH4-1">
          <mxGeometry x="1121" y="670" width="120" height="60" as="geometry" />
        </mxCell>
        <mxCell id="7nyL2iqiai8q92V9KYH4-54" value="" style="endArrow=classic;html=1;rounded=0;exitX=0.5;exitY=1;exitDx=0;exitDy=0;entryX=0.5;entryY=0;entryDx=0;entryDy=0;" edge="1" parent="7nyL2iqiai8q92V9KYH4-1" source="7nyL2iqiai8q92V9KYH4-27" target="7nyL2iqiai8q92V9KYH4-53">
          <mxGeometry width="50" height="50" relative="1" as="geometry">
            <mxPoint x="690" y="570" as="sourcePoint" />
            <mxPoint x="740" y="520" as="targetPoint" />
          </mxGeometry>
        </mxCell>
        <mxCell id="7nyL2iqiai8q92V9KYH4-55" value="" style="endArrow=classic;html=1;rounded=0;exitX=1;exitY=0.5;exitDx=0;exitDy=0;" edge="1" parent="7nyL2iqiai8q92V9KYH4-1" source="7nyL2iqiai8q92V9KYH4-46">
          <mxGeometry width="50" height="50" relative="1" as="geometry">
            <mxPoint x="460" y="630" as="sourcePoint" />
            <mxPoint x="610" y="670" as="targetPoint" />
          </mxGeometry>
        </mxCell>
        <mxCell id="7nyL2iqiai8q92V9KYH4-56" value="" style="endArrow=classic;html=1;rounded=0;exitX=0.5;exitY=1;exitDx=0;exitDy=0;" edge="1" parent="7nyL2iqiai8q92V9KYH4-1" source="7nyL2iqiai8q92V9KYH4-47">
          <mxGeometry width="50" height="50" relative="1" as="geometry">
            <mxPoint x="460" y="630" as="sourcePoint" />
            <mxPoint x="530" y="810" as="targetPoint" />
          </mxGeometry>
        </mxCell>
      </root>
    </mxGraphModel>
  </diagram>
</mxfile>
